<svg version="1.1" xmlns="http://www.w3.org/2000/svg" viewBox="0 131.9 288.05 24.42"> <svg class="svg-logo" width="288" height="288" baseProfile="tiny" viewBox="0 0 136.9 11.5" xmlns="http://www.w3.org/2000/svg"> <path class="color272524 svgShape" d="M23.9 2c.3-.3.7-.5 1.1-.5h.2c.4 0 .8.1 1.1.3.3.2.5.5.5.8 0 .3.1.4.3.5.2.1.3.2.5.2.2 0 .4-.1.5-.2.2-.1.2-.3.2-.6V2.6c0-.4-.1-.7-.3-1-.2-.3-.4-.6-.7-.8-.3-.2-.6-.4-1-.5C26.1.1 25.7 0 25.2 0h-.2c-.4 0-.9.1-1.2.2-.4.2-.7.4-1 .7-.3.3-.5.6-.7 1-.2.4-.3.8-.3 1.2v5.2c0 .4.1.9.3 1.2.2.4.4.7.7 1 .3.3.6.5 1 .7.4.2.8.2 1.3.2h.2c.4 0 .9-.1 1.2-.3.4-.2.7-.4 1-.7.3-.3.5-.6.7-1 .2-.4.3-.8.3-1.3V5.9c0-.2-.1-.4-.2-.6-.2-.2-.3-.2-.6-.2h-2.1c-.3 0-.5.1-.6.2-.1.2-.2.3-.2.5 0 .2.1.4.2.5.1.2.3.2.6.2h1.3v1.7c0 .2 0 .4-.1.6-.1.2-.2.4-.4.5-.1.1-.3.3-.5.4-.2.1-.4.1-.6.1h-.2c-.4 0-.8-.2-1.1-.5-.3-.3-.5-.7-.5-1.1V3.1C23.4 2.7 23.6 2.3 23.9 2zM41.2 5.3c.2-.3.3-.6.4-.9.1-.3.1-.7.1-1V3.3c0-.4-.1-.9-.3-1.2-.2-.4-.4-.7-.7-1s-.6-.5-1-.7c-.4-.2-.8-.3-1.2-.3h-2.7c-.2 0-.4.1-.5.2-.2.2-.2.3-.2.5v9.9c0 .3.1.5.2.6.2.1.3.2.6.2.2 0 .4-.1.5-.2.2-.1.2-.3.2-.6V6.6h1.3l2.1 4.5c.1.2.2.3.3.3.1.1.2.1.4.1.3 0 .5-.1.6-.2s.2-.3.2-.6c0-.1 0-.2-.1-.3l-1.9-3.9C40 6.4 40.3 6.2 40.6 6 40.8 5.8 41 5.6 41.2 5.3zM40.2 3.4c0 .4-.1.8-.4 1.1-.3.3-.7.5-1.1.5h-2V1.7h1.9c.4 0 .8.2 1.1.5.3.3.5.7.5 1.2V3.4zM53.9.9c-.3-.3-.6-.5-1-.7C52.5.1 52.1 0 51.6 0h-.1c-.4 0-.9.1-1.3.2-.4.2-.7.4-1 .7-.3.3-.5.6-.7 1-.2.4-.3.8-.3 1.2v5.2c0 .4.1.9.3 1.2.2.4.4.7.7 1 .3.3.6.5 1 .7.4.2.8.2 1.2.2h.2c.4 0 .9-.1 1.2-.2.4-.2.7-.4 1-.7s.5-.6.7-1c.2-.4.3-.8.3-1.2V3.1c0-.4-.1-.8-.3-1.2C54.4 1.5 54.2 1.2 53.9.9zM53.3 8.4c0 .5-.2.8-.5 1.1-.3.3-.7.5-1.1.5h-.2c-.4 0-.8-.2-1.1-.5-.3-.3-.5-.7-.5-1.1V3.1c0-.4.2-.8.5-1.1.3-.3.7-.5 1.1-.5h.2c.4 0 .8.1 1.1.4.3.3.5.7.5 1.1V8.4zM65.3 10.8L67.7 1c0-.1 0-.1 0-.2 0-.2-.1-.4-.2-.5C67.3.1 67.1 0 66.9 0c-.2 0-.3 0-.4.1-.1.1-.2.2-.3.5l-1.8 7.5-1.8-7.5c-.1-.2-.2-.4-.3-.5C62.2 0 62 0 61.9 0c-.2 0-.4.1-.6.2C61.1.4 61 .6 61 .8c0 .1 0 .2 0 .2l2.4 9.9c.1.2.2.4.3.5.2.1.4.2.6.2.2 0 .4-.1.6-.2C65.1 11.2 65.2 11.1 65.3 10.8zM75 11.4h5c.3 0 .5-.1.6-.2.1-.2.2-.3.2-.5 0-.2-.1-.4-.2-.5-.1-.2-.3-.2-.6-.2h-4.2V6.4h2.9c.3 0 .5-.1.6-.2.1-.2.2-.3.2-.5 0-.2-.1-.4-.2-.5-.1-.2-.3-.2-.6-.2h-2.9V1.7H80c.3 0 .5-.1.6-.2.1-.2.2-.3.2-.5 0-.2-.1-.4-.2-.5-.1-.2-.3-.2-.6-.2h-5c-.2 0-.4.1-.5.2-.2.2-.2.3-.2.5v9.8c0 .2.1.4.2.5C74.6 11.3 74.8 11.4 75 11.4zM94.7 11.3c.2.1.3.2.5.2.2 0 .4-.1.5-.2.2-.1.2-.3.2-.6V.8c0-.2-.1-.4-.2-.5C95.7.1 95.5 0 95.3 0h-.2c-.2 0-.4 0-.5.1-.1.1-.2.2-.3.4l-2.4 5.4-2.4-5.4C89.3.2 89.1 0 88.7 0h-.2c-.2 0-.4.1-.5.2-.2.2-.2.3-.2.5v9.9c0 .3.1.5.2.6.2.1.3.2.5.2.2 0 .4-.1.5-.2.2-.1.2-.3.2-.6v-7l1.8 4.1c.1.2.2.3.3.4.1.1.3.1.5.1.2 0 .3 0 .5-.1.2-.1.3-.2.3-.4l1.8-4.1v7C94.5 11 94.6 11.2 94.7 11.3zM107.1.1C106.9 0 106.7 0 106.5 0c-.2 0-.4.1-.5.2-.2.1-.3.3-.4.5l-3.1 9.9c0 .1 0 .2 0 .3 0 .2.1.4.2.5.1.1.3.2.6.2.2 0 .3 0 .5-.1.2-.1.3-.2.3-.4l.7-2.2h3.6l.7 2.2c.1.2.2.3.3.4.1.1.3.1.4.1.2 0 .4-.1.6-.2.1-.1.2-.3.2-.5 0-.1 0-.1 0-.2l-3.1-9.9C107.4.4 107.3.2 107.1.1zM105.2 7.2l1.3-4.3 1.3 4.3H105.2zM121.6.3c-.4-.2-.8-.2-1.2-.2h-2.6c-.2 0-.4.1-.5.2-.2.2-.2.3-.2.5v9.8c0 .2.1.4.2.5.2.2.3.2.5.2h2.6c.4 0 .9-.1 1.2-.2.4-.2.7-.4 1-.6s.5-.6.7-1c.2-.4.3-.8.3-1.3V3.3c0-.5-.1-.9-.3-1.3-.2-.4-.4-.7-.7-1C122.4.7 122 .5 121.6.3zM122 8.2c0 .2 0 .4-.1.6-.1.2-.2.4-.4.5-.1.1-.3.3-.5.4-.2.1-.4.1-.6.1h-1.8V1.7h1.8c.2 0 .4 0 .6.1.2.1.4.2.5.4.1.1.3.3.4.5.1.2.1.4.1.6V8.2zM136.1 1.7c.3 0 .5-.1.6-.2.1-.2.2-.3.2-.5v0c0-.2-.1-.4-.2-.5-.1-.2-.3-.2-.6-.2h-5c-.2 0-.4.1-.5.2-.2.2-.2.3-.2.5v9.8c0 .2.1.4.2.5.2.2.3.2.5.2h5c.3 0 .5-.1.6-.2.1-.2.2-.3.2-.5v0c0-.2-.1-.4-.2-.5-.1-.2-.3-.2-.6-.2h-4.2V6.4h2.9c.3 0 .5-.1.6-.2.1-.2.2-.3.2-.5 0-.2-.1-.4-.2-.5-.1-.2-.3-.2-.6-.2h-2.9V1.7H136.1zM7.9 11.2L7.9 11.2c0 0 0-.1 0-.1 0 .1-1.1-2.7-1.5-3.1C5.5 7.1 4.5 7.2 3.8 7.2H.4C.2 7.2 0 7.3 0 7.5v0c0 0 0 .1 0 .1 0 0 1.1 2.8 1.5 3.1.8.8 1.5.8 2.6.8h3.5C7.8 11.5 7.9 11.4 7.9 11.2zM13.7 7.7c0-2.1-2.2-6.7-2.5-7.5C11.2.1 11.1 0 10.9 0c-.1 0-.3.1-.3.2C9.1 3.7 8 6.3 8 6.3 7.9 6.6 7.8 6.9 7.9 7.2 8 7.5 8.6 8.7 9 9.7c.6 1.4.7 1.8 2 1.8C12.6 11.5 13.7 10.1 13.7 7.7z"></path> </svg> </svg>